<svg xmlns="http://www.w3.org/2000/svg" width="800" height="450" viewBox="0 0 800 450">
  <defs>
    <linearGradient id="bg" x1="0" y1="0" x2="1" y2="1">
      <stop offset="0%" stop-color="#059669" stop-opacity=".12"/>
      <stop offset="100%" stop-color="#059669" stop-opacity=".04"/>
    </linearGradient>
  </defs>
  <rect width="800" height="450" fill="url(#bg)"/>
  <g transform="translate(400,240)" stroke="#059669" stroke-width="2.5" fill="none" opacity=".35">
    <!-- stem -->
    <path d="M0,80 C0,40 0,10 0,-20" stroke-width="3"/>
    <!-- leaves -->
    <path d="M0,-20 C-10,-60 -50,-70 -70,-50 C-50,-40 -20,-30 0,-20Z" fill="#059669" opacity=".15"/>
    <path d="M0,10 C10,-30 50,-40 70,-20 C50,-10 20,0 0,10Z" fill="#059669" opacity=".15"/>
    <path d="M0,40 C-10,0 -40,-10 -55,5 C-40,15 -15,25 0,40Z" fill="#059669" opacity=".12"/>
    <!-- sun -->
    <circle cx="100" cy="-80" r="24" stroke-width="2"/>
    <line x1="100" y1="-114" x2="100" y2="-120"/>
    <line x1="100" y1="-46" x2="100" y2="-40"/>
    <line x1="66" y1="-80" x2="60" y2="-80"/>
    <line x1="134" y1="-80" x2="140" y2="-80"/>
    <!-- soil -->
    <line x1="-80" y1="80" x2="80" y2="80" stroke-width="2"/>
  </g>
</svg>
