<svg xmlns="http://www.w3.org/2000/svg" width="1600" height="900" viewBox="0 0 1600 900">
  <defs>
    <linearGradient id="bg3" x1="0" y1="0" x2="1" y2="0.8">
      <stop offset="0%" stop-color="#4c1d95"/>
      <stop offset="50%" stop-color="#6d28d9"/>
      <stop offset="100%" stop-color="#a78bfa"/>
    </linearGradient>
  </defs>
  <rect width="1600" height="900" fill="url(#bg3)"/>
  <!-- decorative grid -->
  <circle cx="200" cy="450" r="300" fill="none" stroke="rgba(255,255,255,0.06)" stroke-width="2"/>
  <circle cx="200" cy="450" r="200" fill="none" stroke="rgba(255,255,255,0.06)" stroke-width="2"/>
  <circle cx="1400" cy="450" r="300" fill="none" stroke="rgba(255,255,255,0.06)" stroke-width="2"/>
  <circle cx="1400" cy="450" r="200" fill="none" stroke="rgba(255,255,255,0.06)" stroke-width="2"/>
  <!-- data chart bars -->
  <rect x="500" y="350" width="60" height="130" rx="6" fill="rgba(96,165,250,0.5)"/>
  <rect x="590" y="300" width="60" height="180" rx="6" fill="rgba(96,165,250,0.6)"/>
  <rect x="680" y="250" width="60" height="230" rx="6" fill="rgba(96,165,250,0.7)"/>
  <rect x="770" y="200" width="60" height="280" rx="6" fill="rgba(52,211,153,0.6)"/>
  <rect x="860" y="280" width="60" height="200" rx="6" fill="rgba(52,211,153,0.5)"/>
  <rect x="950" y="220" width="60" height="260" rx="6" fill="rgba(52,211,153,0.65)"/>
  <rect x="1040" y="180" width="60" height="300" rx="6" fill="rgba(251,191,36,0.5)"/>
  <!-- baseline -->
  <line x1="480" y1="480" x2="1120" y2="480" stroke="rgba(255,255,255,0.3)" stroke-width="2"/>
  <!-- trend line -->
  <polyline points="530,350 620,300 710,250 800,200 890,280 980,220 1070,180" fill="none" stroke="rgba(255,255,255,0.6)" stroke-width="3" stroke-linecap="round" stroke-linejoin="round"/>
  <!-- data points -->
  <circle cx="530" cy="350" r="6" fill="#fff" fill-opacity="0.8"/>
  <circle cx="620" cy="300" r="6" fill="#fff" fill-opacity="0.8"/>
  <circle cx="710" cy="250" r="6" fill="#fff" fill-opacity="0.8"/>
  <circle cx="800" cy="200" r="6" fill="#fff" fill-opacity="0.8"/>
  <circle cx="890" cy="280" r="6" fill="#fff" fill-opacity="0.8"/>
  <circle cx="980" cy="220" r="6" fill="#fff" fill-opacity="0.8"/>
  <circle cx="1070" cy="180" r="6" fill="#fff" fill-opacity="0.8"/>
  <!-- text -->
  <text x="800" y="600" fill="rgba(255,255,255,0.95)" font-size="52" font-family="system-ui, -apple-system, sans-serif" font-weight="700" text-anchor="middle">Data-Driven Agriculture</text>
  <text x="800" y="660" fill="rgba(255,255,255,0.7)" font-size="28" font-family="system-ui, -apple-system, sans-serif" text-anchor="middle">AI &amp; sensor networks for precision horticulture</text>
  <text x="800" y="820" fill="rgba(255,255,255,0.4)" font-size="20" font-family="system-ui, -apple-system, sans-serif" text-anchor="middle">Placeholder — replace with real photo (1600 x 900)</text>
</svg>
